<?xml version="1.0" encoding="UTF-8"?>
<svg id="Layer_1" data-name="Layer 1" xmlns="http://www.w3.org/2000/svg" viewBox="0 0 976.99 209.18">
  <defs>
    <style>
      .cls-1 {
        fill: #fff;
      }
    </style>
  </defs>
  <g>
    <circle class="cls-1" cx="25.89" cy="107.33" r="25.89"/>
    <circle class="cls-1" cx="86.84" cy="183.29" r="25.89"/>
    <circle class="cls-1" cx="177.91" cy="148.8" r="25.89"/>
    <circle class="cls-1" cx="173.25" cy="51.52" r="25.89"/>
    <circle class="cls-1" cx="79.29" cy="25.89" r="25.89"/>
  </g>
  <g>
    <path class="cls-1" d="M349.29,160.51c-10.14,0-19.27-1.98-27.4-5.95-8.13-3.96-14.56-9.75-19.3-17.36-4.75-7.6-7.12-16.74-7.12-27.4s2.6-19.79,7.8-27.4c5.2-7.6,12.06-13.39,20.57-17.35,8.51-3.96,17.71-5.95,27.59-5.95,7.67,0,14.62,1.2,20.86,3.61,6.24,2.41,11.37,5.56,15.41,9.46l-13.26,17.75c-3.77-2.6-7.38-4.52-10.82-5.75-3.45-1.23-6.99-1.85-10.63-1.85-5.46,0-10.33,1.11-14.62,3.32-4.29,2.21-7.6,5.4-9.95,9.55-2.34,4.16-3.51,9.04-3.51,14.62s1.14,10.47,3.41,14.63c2.27,4.16,5.46,7.35,9.55,9.56,4.09,2.21,8.81,3.31,14.14,3.31s9.72-.91,13.94-2.73c4.22-1.82,8.09-3.96,11.6-6.44l11.5,18.14c-5.72,4.81-12.12,8.38-19.21,10.72-7.09,2.34-13.94,3.51-20.57,3.51Z"/>
    <path class="cls-1" d="M457.9,160.51c-8.45,0-16.45-1.98-23.99-5.95-7.54-3.96-13.65-9.75-18.33-17.36-4.68-7.6-7.02-16.74-7.02-27.4s2.34-19.79,7.02-27.4c4.68-7.6,10.79-13.39,18.33-17.35,7.54-3.96,15.53-5.95,23.99-5.95s16.44,1.98,23.99,5.95c7.54,3.97,13.65,9.75,18.33,17.35,4.68,7.61,7.02,16.74,7.02,27.4s-2.34,19.79-7.02,27.4c-4.68,7.61-10.79,13.39-18.33,17.36-7.54,3.96-15.54,5.95-23.99,5.95ZM457.9,137.31c4.42,0,8.09-1.1,11.02-3.31,2.92-2.21,5.13-5.39,6.63-9.56,1.49-4.16,2.24-9.03,2.24-14.63s-.75-10.46-2.24-14.62c-1.5-4.16-3.71-7.34-6.63-9.55-2.92-2.21-6.6-3.32-11.02-3.32s-8.09,1.11-11.02,3.32c-2.92,2.21-5.14,5.4-6.63,9.55-1.5,4.16-2.24,9.04-2.24,14.62s.75,10.47,2.24,14.63c1.49,4.16,3.71,7.35,6.63,9.56,2.92,2.21,6.6,3.31,11.02,3.31Z"/>
    <path class="cls-1" d="M539.02,158.17V61.45h23.4l2.34,21.06h.58c4.81-7.93,10.63-13.81,17.45-17.65,6.83-3.83,14.07-5.75,21.74-5.75,4.29,0,7.77.33,10.43.97,2.66.65,5.43,1.63,8.29,2.92l-5.85,23.99c-2.99-.91-5.69-1.59-8.09-2.05-2.41-.45-5.43-.68-9.07-.68-5.98,0-11.86,1.75-17.65,5.27-5.79,3.51-10.76,9.62-14.92,18.33v50.31h-28.67Z"/>
    <path class="cls-1" d="M683.32,160.51c-12.22,0-22.07-4.52-29.54-13.55-7.48-9.03-11.21-21.42-11.21-37.15,0-10.53,1.98-19.56,5.95-27.1,3.96-7.54,9.13-13.36,15.5-17.45,6.37-4.09,13-6.14,19.89-6.14,5.33,0,9.95.91,13.84,2.73,3.9,1.82,7.41,4.36,10.53,7.61h.78l-1.37-15.02V21.48h28.67v136.7h-23.4l-2.14-9.95h-.58c-3.51,3.51-7.64,6.44-12.38,8.78-4.75,2.34-9.59,3.51-14.53,3.51ZM690.73,137.11c3.25,0,6.27-.68,9.07-2.05,2.79-1.37,5.43-3.67,7.9-6.92v-39.19c-2.6-2.34-5.23-4-7.9-4.97-2.67-.98-5.43-1.46-8.29-1.46-3.51,0-6.76.98-9.75,2.92-2.99,1.95-5.36,4.91-7.12,8.87-1.75,3.97-2.63,9-2.63,15.11,0,9.49,1.62,16.48,4.88,20.96,3.25,4.48,7.86,6.73,13.84,6.73Z"/>
    <path class="cls-1" d="M814.75,160.51c-10.01,0-19.08-1.98-27.2-5.95-8.13-3.96-14.56-9.75-19.3-17.36-4.75-7.6-7.12-16.8-7.12-27.59s2.37-19.53,7.12-27.01c4.74-7.47,10.98-13.26,18.72-17.36,7.73-4.09,15.89-6.14,24.47-6.14,9.88,0,18.2,2.05,24.96,6.14,6.76,4.1,11.86,9.62,15.31,16.58,3.44,6.96,5.17,14.85,5.17,23.69,0,2.6-.1,5.1-.29,7.51-.2,2.41-.42,4.19-.68,5.36h-73.51v-19.31h54.01l-4.68,5.46c0-7.8-1.63-13.68-4.88-17.65-3.25-3.96-8.06-5.95-14.43-5.95-4.68,0-8.77,1.07-12.29,3.22-3.51,2.15-6.24,5.33-8.19,9.56-1.95,4.23-2.92,9.59-2.92,16.09s1.17,12.06,3.51,16.28c2.34,4.23,5.72,7.35,10.14,9.36,4.42,2.02,9.75,3.02,15.99,3.02,4.42,0,8.61-.55,12.58-1.66,3.96-1.1,8.09-2.7,12.38-4.78l9.36,17.16c-5.46,3.51-11.57,6.27-18.33,8.29-6.76,2.01-13.39,3.02-19.89,3.02Z"/>
    <path class="cls-1" d="M874.61,158.17l33.54-50.31-31.39-46.41h30.81l9.95,15.6c1.56,2.73,3.25,5.49,5.07,8.29,1.82,2.8,3.51,5.56,5.07,8.29h.78c1.17-2.73,2.5-5.52,4-8.38,1.49-2.86,2.83-5.59,4-8.19l8.58-15.6h30.03l-31.59,49.72,33.54,47h-30.81l-11.12-15.99c-1.82-2.73-3.67-5.52-5.56-8.38-1.89-2.86-3.74-5.66-5.56-8.38h-.78c-1.43,2.73-2.92,5.49-4.48,8.29-1.56,2.8-3.06,5.62-4.49,8.48l-9.55,15.99h-30.03Z"/>
  </g>
</svg>